<?xml version="1.0" encoding="UTF-8" standalone="no"?>
<svg id="svg2" xmlns:rdf="http://www.w3.org/1999/02/22-rdf-syntax-ns#" xmlns="http://www.w3.org/2000/svg" height="607pt" width="496pt" version="1.1" xmlns:cc="http://creativecommons.org/ns#" xmlns:dc="http://purl.org/dc/elements/1.1/" viewBox="0 0 496 607">
<path id="path4" d="m101.38 16.31c-3.32-15.56 12.84-15.15 22.3-7.99 15.99 11.15 36.62 6.79 53.99 14.03 40.56 15.61 84.71 18.87 124.66 36.31 13.74 10.46 27.47 22.13 45.5 23.62 10.25 2.34 27.49-2.85 21.25 14.82 3.17 17.11-16.77 10.48-25.28 6.07-34.92-12.95-69.56-27.69-104.51-39.93-7.11 23.5-11.25 47.94-11.25 72.5 6.64 33.76 12.86 67.62 19.88 101.3 10.84 27.77 28.6 52.82 49.12 74.11 3.26 11.15 12.4 19.58 21.29 26.5 7.93 4 8.55 14.41 15.77 19.24 6.61 4.99 12.08 12.22 12.9 20.67-5.19 2.83-12.41 12.22-18.64 6.27-5.81-5.74-9.91-14.23-18.32-16.71-2.5-3.38-5.13-6.67-7.2-10.33-3.76-11.45-10.87-23.14-21.97-28.8-20.35-31.73-45.41-61.05-59.41-96.46-12.02-32.98-21.55-67.85-19.33-103.26 1.9-13.98 5.95-27.73 6.56-41.87-6.31 1.03-9.77 9.6-14.87 13.44-25.87 37.06-39.19 81.98-42.25 126.79-1.8 49.71-7.57 101.68 9.39 149.46-5.28 9.64-0.56 19.72 1.32 29.49-4.86 0.5-9.88 0.21-14.58-1.1-3.31-10.05-2.89-21.31-8.33-30.64-11.59-43.67-8.59-90.04-9.38-134.88-3.06-59.09 20.64-117.42 56.59-163.38 4.49-7.83 16.82-11.39 17.09-21.17-33.64-13.59-73.03-15.1-102.29-38.1z" fill="#191919"/>
<path id="path6" d="m347.83 82.28c11.87-4 29.68-0.88 21.25 14.82 6.24-17.67-11-12.48-21.25-14.82z" fill="#da0c00"/>
<path id="path8" d="m493.59 348.4c-3.11 0-6.24 0.17-9.4 0.5-40.48 2.89-78.33 19.74-112.89 40.04 4.08 13.94 15.5 24.47 26.61 33.12 9.91 5 10.69 18.02 19.71 24.05 8.27 6.24 15.1 15.28 16.13 25.84-6.49 3.54-15.51 15.27-23.3 7.84-7.26-7.18-12.39-17.79-22.9-20.89-10.81 32.41-10.25 66.72-3.86 99.92-28.43-26.98-30.43-82.28-5.14-112.83-4.7-14.31-13.59-28.93-27.46-36-22.8 24.49-40.88 54.9-43.63 88.9-3.01 47.45 20.95 93.15 55.84 124.07 30.41 28.5 73.15 50.49 115.81 41.08 34.35-5.89 69.65-12.59 100.65-29.26 26.14-17.77 33.54-50.72 36.17-80.22 1.07-43.42 1.88-89.05-15.78-129.71-19.29-40.56-59.91-76.5-106.56-76.45zm2.87 24.24c17.95 1.85 41.27 7.38 50.72 23.56-13.93-2.71-27.48-7.68-41.46-10.51-6-0.98-9.52-7.38-9.26-13.05zm-374.57 82.92c-20.09 0.17-40.203 6.63-56.452 18.62-53.538 38.82-76.725 114.5-53.7 176.6 30.188 75.41 120.84 115.68 198.32 100.76 34.95-10.49 62.63-38.65 80.83-69.39 24.51-50.3 4.99-107.99-15.65-156.14-13.09-31-44.9-44.38-74.04-55.9-6.6 12.05-0.7 24.65 1.65 36.86-6.08 0.63-12.35 0.27-18.23-1.37-4.13-12.56-3.61-26.64-10.41-38.3-1.2 4.19-4.87 0.61-7.35-0.37-13.75-7.84-29.35-11.51-44.97-11.37zm355.42 24.59c-5.62 15.05-15.2 30.74-7.5 47.34 1.97 11.07 14.31 14.52 19.23 23.47-33.42-5.05-35.76-52.96-11.73-70.81zm-360.31 1.43c2.29 0.18 5.45 3.06 0.78 3.54-23.68 11.82-45.418 26.53-66.68 42.04 11.237-24.32 37.437-44.46 65-45.47 0.27-0.1 0.58-0.13 0.9-0.11zm323.38 3.83c-1.86 11.71-9.39 30.64-6.02 45.28-16.7-8.18-7.38-37.08 6.02-45.28zm75.41 6.23c10.03 5.38 16.06 16.77 16.53 27.97-10.62 4.25-22.64 3.9-32.08-2.82-0.46-10.49 7.31-19.67 15.55-25.15zm-296.94 16.61c6.68-0.01-1.13 7.25-3.8 0.51 1.6-0.36 2.85-0.51 3.8-0.51zm-73.07 0.07c1.63 0.05 3.1 0.39 4.26 1.34-10.37 4.68-21.16 8.4-32.36 10.46 3.11-6.16 10.85-8.69 17.06-10.82 3.17 0.31 7.47-1.07 11.04-0.98zm93.32 38.98c21.22 6.28 27.06 34.86 24.93 52.75-4.5-19.25-15.82-35.56-24.93-52.75zm-133.64 23.95c-1.53 21.19 10.8 48.05 8.33 71.25-26.465-13.46-28.052-50.68-8.33-71.25zm67.06 21.23c1.37 0 2.89 0.2 4.57 0.62 20.45-3.3-3.04 20.8-9.59 25.68-8.07-8.02-8.3-26.29 5.02-26.3zm-126.43 51.56c13.025 10.38 21.986 26.59 23.674 43.3 0.687 2.27-3.536 4.36-3.899 0.67-11.675-11.89-17.025-27.94-19.775-43.97zm115.81 45.43c3.56-0.04 6.89 0.31 9.6 1.72-3.94 7.01-25.61 8.46-27.36-1.44 5.3 0.92 11.84-0.21 17.76-0.28zm68.42 13.8c12.16-0.05-2.06 10.27-11.38 10.57 0.71-3.43 0.41-8.6 4.46-9.85 2.91-0.49 5.18-0.71 6.92-0.72z" transform="scale(.8)" fill="#da0c00"/>
</svg>
